<?xml version="1.0" standalone="no"?>
<!DOCTYPE svg PUBLIC "-//W3C//DTD SVG 20010904//EN"
 "http://www.w3.org/TR/2001/REC-SVG-20010904/DTD/svg10.dtd">
<svg version="1.0" xmlns="http://www.w3.org/2000/svg"
 width="600.000000pt" height="600.000000pt" viewBox="0 0 600.000000 600.000000"
 preserveAspectRatio="xMidYMid meet">
<metadata>
Created by potrace 1.14, written by Peter Selinger 2001-2017
</metadata>
<g transform="translate(0.000000,600.000000) scale(0.100000,-0.100000)"
fill="#000000" stroke="none">
<path d="M2797 5994 c-1 -1 -36 -4 -77 -8 -141 -12 -190 -19 -290 -41 -14 -3
-38 -8 -54 -10 -15 -2 -38 -8 -50 -11 -11 -4 -28 -8 -36 -9 -22 -3 -171 -44
-195 -54 -33 -14 -178 -63 -202 -68 -13 -3 -23 -9 -23 -14 0 -5 -7 -9 -16 -9
-36 0 -469 -227 -494 -259 -3 -3 -17 -12 -32 -20 -15 -8 -37 -22 -47 -33 -11
-10 -23 -18 -26 -18 -3 0 -11 -4 -18 -10 -7 -5 -39 -31 -72 -57 -33 -26 -61
-51 -63 -55 -2 -4 -8 -8 -12 -8 -20 0 -320 -291 -320 -310 0 -6 -5 -8 -10 -5
-6 3 -10 2 -10 -4 0 -6 -8 -18 -18 -28 -10 -10 -45 -52 -78 -93 -32 -41 -62
-76 -66 -78 -5 -2 -8 -9 -8 -16 0 -7 -9 -21 -20 -31 -11 -10 -20 -22 -20 -27
0 -5 -5 -14 -10 -21 -41 -48 -50 -62 -50 -73 0 -7 -4 -14 -9 -16 -9 -3 -40
-52 -63 -98 -7 -14 -17 -28 -23 -32 -5 -4 -6 -8 -2 -8 5 0 -1 -12 -12 -26 -12
-15 -21 -31 -21 -36 0 -6 -9 -21 -20 -35 -11 -14 -18 -29 -15 -33 3 -4 -2 -13
-10 -20 -8 -7 -15 -20 -15 -29 0 -10 -7 -26 -15 -37 -8 -10 -15 -27 -15 -36 0
-10 -4 -18 -8 -18 -5 0 -15 -19 -21 -42 -7 -24 -17 -48 -22 -54 -6 -7 -12 -22
-14 -35 -3 -13 -12 -38 -21 -57 -8 -18 -13 -40 -10 -47 3 -8 1 -15 -5 -17 -5
-2 -17 -28 -25 -58 -39 -139 -55 -197 -59 -220 -7 -35 -14 -71 -20 -100 -9
-42 -13 -66 -21 -117 -3 -26 -8 -57 -10 -68 -16 -83 -24 -523 -11 -655 9 -102
17 -173 23 -200 3 -14 9 -47 14 -75 18 -108 62 -280 71 -283 5 -2 7 -8 4 -13
-3 -5 0 -19 7 -31 7 -13 11 -27 10 -32 -3 -9 29 -107 38 -116 3 -3 7 -14 8
-25 2 -11 8 -24 13 -30 5 -5 9 -17 9 -26 0 -9 8 -34 18 -56 11 -21 38 -77 61
-125 24 -48 43 -91 43 -95 0 -4 9 -20 19 -35 10 -14 19 -30 19 -35 0 -5 9 -19
20 -31 12 -12 18 -22 15 -22 -3 0 6 -18 20 -40 14 -22 25 -44 25 -50 0 -5 5
-10 10 -10 6 0 10 -5 10 -10 0 -11 10 -24 43 -61 9 -10 16 -21 15 -23 -3 -6
111 -161 141 -193 12 -12 21 -24 21 -26 0 -23 305 -326 410 -407 24 -19 51
-41 58 -48 7 -6 44 -33 80 -59 37 -26 69 -51 70 -55 2 -5 10 -8 17 -8 8 0 18
-7 23 -16 5 -9 11 -15 13 -13 2 2 29 -13 60 -32 30 -19 64 -39 75 -46 10 -7
39 -22 64 -34 25 -13 66 -35 93 -51 26 -15 47 -25 47 -22 0 2 19 -6 43 -19 23
-13 80 -38 127 -56 47 -18 94 -37 105 -41 11 -4 34 -13 50 -18 17 -6 39 -13
50 -18 11 -4 25 -8 30 -9 6 -2 53 -14 105 -29 91 -24 217 -53 270 -61 55 -8
178 -25 225 -31 126 -16 590 -8 690 12 17 3 46 7 65 9 19 2 35 4 35 5 0 1 14
4 30 6 47 8 70 12 70 14 0 1 11 3 25 5 28 4 35 5 145 34 44 11 112 31 152 45
39 13 74 22 77 18 3 -3 6 1 6 8 0 7 3 10 6 7 4 -3 16 -1 28 5 24 14 21 13 64
23 17 4 32 11 32 16 0 5 7 9 15 9 37 0 421 199 480 249 11 9 32 23 47 31 15 7
37 21 47 32 11 10 25 18 31 18 5 0 10 4 10 9 0 5 8 12 18 15 9 4 37 24 61 46
25 22 47 40 50 40 3 0 27 20 53 44 26 24 50 41 53 38 3 -3 5 3 5 13 0 10 3 15
6 12 9 -9 304 292 304 310 0 3 10 14 22 24 11 11 17 19 12 19 -5 0 2 7 14 16
12 8 22 22 22 30 0 8 3 14 8 14 4 0 18 17 32 37 24 36 42 60 65 87 6 6 11 17
13 24 1 7 11 23 22 35 11 11 20 26 20 33 0 7 3 14 8 16 9 4 89 141 97 168 4
11 10 20 15 20 4 0 11 12 15 28 3 15 13 34 20 42 7 8 14 17 14 20 1 21 25 70
34 70 6 0 8 3 5 6 -5 5 9 45 42 119 38 84 120 362 148 500 45 220 56 348 56
615 0 201 -10 345 -29 450 -17 90 -23 136 -18 143 2 4 0 7 -5 7 -5 0 -12 17
-15 38 -8 52 -17 94 -22 102 -5 8 -17 68 -18 88 0 6 -4 12 -8 12 -4 0 -13 24
-20 53 -7 28 -14 54 -14 57 -1 3 -7 19 -14 35 -7 17 -14 37 -16 45 -2 8 -4 16
-5 18 -2 1 -3 5 -5 10 -1 4 -9 24 -18 44 -10 21 -17 39 -17 42 0 6 -68 157
-80 176 -5 8 -21 40 -36 70 -15 30 -37 71 -49 90 -52 83 -59 95 -56 98 2 2
-15 25 -59 79 -6 7 -10 15 -10 19 0 8 -136 190 -161 215 -11 11 -17 19 -15 19
7 0 -52 63 -176 190 -65 66 -123 120 -129 120 -5 0 -7 5 -4 10 3 6 3 10 -2 10
-4 0 -24 14 -43 31 -66 57 -256 199 -267 199 -6 0 -13 3 -15 8 -6 14 -126 90
-243 152 -27 14 -61 33 -75 40 -14 8 -27 15 -30 15 -3 1 -24 11 -46 23 -23 11
-44 18 -48 15 -3 -4 -6 -1 -6 5 0 7 -6 12 -14 12 -8 0 -27 7 -43 15 -52 27
-185 75 -193 70 -5 -3 -11 -1 -14 4 -9 13 -211 72 -333 97 -13 2 -35 6 -50 10
-16 3 -41 7 -58 9 -16 2 -39 6 -50 8 -20 5 -67 11 -165 23 -48 6 -497 13 -503
8z"/>
</g>
</svg>
